#!OML:ASF H:\ManfredETheater\Project 1\Capture day 1\Session 1\subject.ASF
:FULLY-SPECIFIED
:DEGREES
216
root 0.733643 16.9658 31.6416 -167.206 -0.312772 175.128
lowerback 7.53742 -0.702702 -5.85133
upperback -0.524818 -1.4237 1.21019
thorax -4.61208 -0.551071 4.72183
lowerneck -17.2947 -0.871277 -1.45707
upperneck 17.9308 -0.575381 -0.144094
head 8.43991 -0.308043 0.133031
rclavicle 2.40529e-014 1.59028e-015
rhumerus -37.0907 -5.33427 -80.1564
rradius 42.9723
rwrist -3.78462
rhand -19.5516 -11.0366
rfingers 7.12502
rthumb 6.77268 -40.9083
lclavicle 2.40529e-014 1.59028e-015
lhumerus -32.8617 0.311484 89.9571
lradius 29.7624
lwrist -14.9153
lhand -10.6765 9.06611
lfingers 7.12502
lthumb 15.3321 38.4777
rfemur -43.7649 -10.6439 13.5844
rtibia 60.5454
rfoot -17.4208 -12.7614
rtoes 3.2728
lfemur -14.6024 -4.46052 -26.8831
ltibia 34.915
lfoot -24.1236 6.29635
ltoes -6.49425
217
root 0.72759 16.9737 31.5639 -167.181 -0.00814414 175.13
lowerback 7.54686 -0.675909 -5.87409
upperback -0.537869 -1.39212 1.1822
thorax -4.63526 -0.534014 4.70234
lowerneck -17.3021 -0.829991 -1.43176
upperneck 17.9067 -0.534909 -0.110548
head 8.43272 -0.284466 0.144961
rclavicle -6.55989e-015 -1.43125e-014
rhumerus -37.1487 -5.55482 -80.0998
rradius 42.7194
rwrist -3.70839
rhand -19.5509 -11.0367
rfingers 7.12502
rthumb 6.77338 -40.9083
lclavicle -6.55989e-015 -1.43125e-014
lhumerus -32.808 0.861752 89.5826
lradius 29.4871
lwrist -15.1462
lhand -10.7072 9.18347
lfingers 7.12502
lthumb 15.3025 38.5973
rfemur -44.2931 -10.5057 13.849
rtibia 59.1796
rfoot -17.5043 -12.4627
rtoes 2.84077
lfemur -14.2349 -4.39123 -26.9666
ltibia 34.6772
lfoot -23.9415 6.39671
ltoes -6.97921
218
root 0.722255 16.9825 31.4844 -167.145 0.29504 175.131
lowerback 7.54714 -0.650302 -5.8924
upperback -0.554793 -1.36119 1.15361
thorax -4.65734 -0.5173 4.67956
lowerneck -17.3128 -0.787864 -1.40568
upperneck 17.8839 -0.492623 -0.0805696
head 8.42656 -0.26036 0.155774
rclavicle -9.54166e-015 -3.18055e-015
rhumerus -37.2036 -5.76787 -80.0387
rradius 42.4209
rwrist -3.60868
rhand -19.5418 -11.0347
rfingers 7.12502
rthumb 6.78211 -40.906
lclavicle -9.54166e-015 -3.18055e-015
lhumerus -32.7545 1.45174 89.1943
lradius 29.2081
lwrist -15.366
lhand -10.7662 9.29421
lfingers 7.12502
lthumb 15.2457 38.7124
rfemur -44.7768 -10.3367 14.0976
rtibia 57.6955
rfoot -17.5107 -12.0659
rtoes 2.4005
lfemur -13.8587 -4.32278 -27.0513
ltibia 34.4077
lfoot -23.7387 6.49426
ltoes -7.46653
219
root 0.717706 16.9925 31.403 -167.099 0.586195 175.131
lowerback 7.54233 -0.643546 -5.90498
upperback -0.575868 -1.33063 1.12543
thorax -4.6799 -0.490718 4.65303
lowerneck -17.3339 -0.745385 -1.37915
upperneck 17.8661 -0.449247 -0.0531986
head 8.42389 -0.236026 0.165738
rclavicle -3.79679e-014 1.66979e-014
rhumerus -37.2555 -5.97496 -79.9735
rradius 42.0829
rwrist -3.48999
rhand -19.5217 -11.025
rfingers 7.12502
rthumb 6.80155 -40.8957
lclavicle -3.79679e-014 1.66979e-014
lhumerus -32.6999 2.06369 88.7986
lradius 28.9289
lwrist -15.5741
lhand -10.8442 9.39711
lfingers 7.12502
lthumb 15.1706 38.821
rfemur -45.2168 -10.1486 14.3312
rtibia 56.1104
rfoot -17.4186 -11.5749
rtoes 1.99678
lfemur -13.474 -4.25724 -27.1337
ltibia 34.1056
lfoot -23.5154 6.58256
ltoes -7.95177
220
root 0.713916 17.0036 31.3197 -167.039 0.863896 175.132
lowerback 7.5316 -0.625998 -5.90648
upperback -0.602802 -1.30918 1.0991
thorax -4.70538 -0.479064 4.62401
lowerneck -17.3613 -0.702003 -1.35198
upperneck 17.8509 -0.403715 -0.030432
head 8.42323 -0.211134 0.174299
rclavicle -7.55382e-015 -1.66979e-014
rhumerus -37.3071 -6.16783 -79.9047
rradius 41.7114
rwrist -3.35506
rhand -19.4931 -11.01
rfingers 7.12502
rthumb 6.82918 -40.8798
lclavicle -7.55382e-015 -1.66979e-014
lhumerus -32.6508 2.68692 88.4019
lradius 28.6568
lwrist -15.7746
lhand -10.9247 9.49664
lfingers 7.12502
lthumb 15.093 38.9264
rfemur -45.6193 -9.94269 14.551
rtibia 54.4406
rfoot -17.1937 -11.0135
rtoes 1.59475
lfemur -13.0821 -4.1978 -27.2119
ltibia 33.7714
lfoot -23.2733 6.6666
ltoes -8.4319
221
root 0.71102 17.0156 31.2348 -166.965 1.12316 175.134
lowerback 7.51216 -0.613422 -5.8995
upperback -0.633654 -1.29314 1.07492
thorax -4.72948 -0.470291 4.59288
lowerneck -17.3986 -0.658812 -1.32346
upperneck 17.8371 -0.358252 -0.0105744
head 8.42476 -0.186587 0.181628
rclavicle 2.70347e-014 -1.35174e-014
rhumerus -37.3569 -6.34982 -79.8333
rradius 41.3142
rwrist -3.2114
rhand -19.4623 -10.981
rfingers 7.12502
rthumb 6.85887 -40.8499
lclavicle 2.70347e-014 -1.35174e-014
lhumerus -32.603 3.29713 88.0128
lradius 28.398
lwrist -15.9655
lhand -10.9942 9.5992
lfingers 7.12502
lthumb 15.0261 39.034
rfemur -45.9889 -9.72083 14.7564
rtibia 52.7027
rfoot -16.8146 -10.4018
rtoes 1.20697
lfemur -12.6874 -4.14291 -27.2837
ltibia 33.4066
lfoot -23.0128 6.74052
ltoes -8.90079
222
root 0.709044 17.0282 31.1482 -166.874 1.36291 175.138
lowerback 7.48486 -0.60801 -5.88564
upperback -0.671981 -1.2857 1.05495
thorax -4.75597 -0.465719 4.56316
lowerneck -17.434 -0.614616 -1.29755
upperneck 17.8215 -0.310229 0.00686298
head 8.42535 -0.161252 0.1889
rclavicle 3.37934e-015 -7.15625e-015
rhumerus -37.4103 -6.51128 -79.7595
rradius 40.9015
rwrist -3.05648
rhand -19.4295 -10.9816
rfingers 7.12502
rthumb 6.89052 -40.8494
lclavicle 3.37934e-015 -7.15625e-015
lhumerus -32.5646 3.89036 87.6359
lradius 28.1557
lwrist -16.1512
lhand -11.0489 9.69778
lfingers 7.12502
lthumb 14.9734 39.1365
rfemur -46.3301 -9.48028 14.9432
rtibia 50.9143
rfoot -16.288 -9.75615
rtoes 0.952688
lfemur -12.2935 -4.0866 -27.3487
ltibia 33.0147
lfoot -22.7363 6.79912
ltoes -9.36493
223
root 0.707991 17.0413 31.0599 -166.771 1.57278 175.142
lowerback 7.45149 -0.610581 -5.86134
upperback -0.711195 -1.2875 1.0375
thorax -4.77895 -0.466085 4.53104
lowerneck -17.4824 -0.571738 -1.26994
upperneck 17.8051 -0.264127 0.0214425
head 8.42799 -0.137187 0.194665
rclavicle -2.5842e-015 2.38542e-015
rhumerus -37.4645 -6.66087 -79.685
rradius 40.488
rwrist -2.89779
rhand -19.3849 -11.0051
rfingers 7.12502
rthumb 6.93359 -40.8715
lclavicle -2.5842e-015 2.38542e-015
lhumerus -32.5259 4.44476 87.2783
lradius 27.9348
lwrist -16.3301
lhand -11.0828 9.79096
lfingers 7.12502
lthumb 14.9407 39.2321
rfemur -46.638 -9.22858 15.1088
rtibia 49.0938
rfoot -15.5954 -9.10813
rtoes 0.697544
lfemur -11.8982 -4.03496 -27.4052
ltibia 32.6011
lfoot -22.4485 6.83833
ltoes -9.8135
224
root 0.708064 17.0545 30.9701 -166.657 1.75142 175.143
lowerback 7.41636 -0.621346 -5.83488
upperback -0.752972 -1.29982 1.02432
thorax -4.8023 -0.471613 4.50335
lowerneck -17.5421 -0.530649 -1.24294
upperneck 17.7883 -0.219777 0.0325043
head 8.43254 -0.1145 0.199114
rclavicle 8.15017e-015 -2.78299e-014
rhumerus -37.5213 -6.79964 -79.6049
rradius 40.0747
rwrist -2.73287
rhand -19.3284 -11.0385
rfingers 7.12502
rthumb 6.98816 -40.9031
lclavicle 8.15017e-015 -2.78299e-014
lhumerus -32.489 4.95301 86.9461
lradius 27.7401
lwrist -16.5021
lhand -11.0865 9.87396
lfingers 7.12502
lthumb 14.9372 39.3153
rfemur -46.9155 -8.95916 15.2446
rtibia 47.2624
rfoot -14.7665 -8.48762
rtoes 0.481713
lfemur -11.5038 -3.98391 -27.4552
ltibia 32.1715
lfoot -22.1503 6.85518
ltoes -10.2664
